# File created by Blade
# Date/Time:  Tue Sep 30 19:33:40 2014
#---------------------------------------------------------
:version 1.10
:name HOM
:units
  mass 1.0
  length 1.000000
  angle deg
:documentation
     Acclaim Skeleton File
:root
   axis xyz
   order TX TY TZ RX RY RZ
   position 0.000000 0.000000 0.000000
   orientation 0 0 0
:bonedata
   begin
      id 1
      name Spine_dum
      direction 0.000000 1.000000 0.000000
      length 3.241213
      axis 0.0 0.0 0.0 xyz
   end
   begin
      id 2
      name LeftUpLeg_dum
      direction 1.000000 0.000000 0.000000
      length 3.434019
      axis 0.0 0.0 0.0 xyz
   end
   begin
      id 3
      name RightUpLeg_dum
      direction -1.000000 0.000000 0.000000
      length 3.434019
      axis 0.0 0.0 0.0 xyz
   end
   begin
      id 4
      name Spine
      direction 0.000000 1.000000 0.000000
      length 0.000000
      axis 0.0 0.0 0.0 xyz
      dof rx ry rz
   end
   begin
      id 5
      name Spine_dum1
      direction 0.000000 1.000000 0.000000
      length 18.382958
      axis 0.0 0.0 0.0 xyz
   end
   begin
      id 6
      name Spine_dum2
      direction 0.000000 1.000000 0.000000
      length 12.828261
      axis 0.0 0.0 0.0 xyz
   end
   begin
      id 7
      name Spine_dum3
      direction 0.000000 1.000000 0.000000
      length 12.828261
      axis 0.0 0.0 0.0 xyz
   end
   begin
      id 8
      name Head
      direction 0.000000 1.000000 0.000000
      length 4.527550
      axis 0.0 0.0 0.0 xyz
      dof rx ry rz
   end
   begin
      id 9
      name LeftShoulder
      direction 1.000000 0.000000 0.000000
      length 7.748055
      axis 0.0 0.0 -90.0 xyz
      dof rx ry rz
   end
   begin
      id 10
      name LeftArm
      direction 1.000000 0.000000 0.000000
      length 10.635614
      axis 0.0 0.0 -90.0 xyz
      dof rx ry rz
   end
   begin
      id 11
      name LeftForeArm
      direction 1.000000 0.000000 0.000000
      length 8.346755
      axis 0.0 0.0 -90.0 xyz
      dof ry rz rx
   end
   begin
      id 12
      name LeftHand
      direction 0.000000 0.000000 0.000000
      length 0.000000
      axis 0.0 0.0 -90.0 xyz
      dof rx ry rz
   end
   begin
      id 13
      name LeftHand_dum1
      direction 0.000000 0.000000 0.000000
      length 0.000000
      axis 0.0 0.0 -90.0 xyz
   end
   begin
      id 14
      name LeftHand_dum2
      direction 1.000000 0.000000 0.000000
      length 3.937000
      axis 0.0 0.0 -90.0 xyz
   end
   begin
      id 15
      name LeftHandThumb1
      direction 0.000000 0.000000 1.000000
      length 3.937000
      axis 0.0 0.0 -90.0 xyz
      dof rx rz ry
   end
   begin
      id 16
      name RightShoulder
      direction -1.000000 0.000000 0.000000
      length 7.748055
      axis 0.0 0.0 90.0 xyz
      dof rx ry rz
   end
   begin
      id 17
      name RightArm
      direction -1.000000 0.000000 0.000000
      length 10.635614
      axis 0.0 0.0 90.0 xyz
      dof rx ry rz
   end
   begin
      id 18
      name RightForeArm
      direction -1.000000 0.000000 0.000000
      length 8.346755
      axis 0.0 0.0 90.0 xyz
      dof ry rz rx
   end
   begin
      id 19
      name RightHand
      direction 0.000000 0.000000 0.000000
      length 0.000000
      axis 0.0 0.0 90.0 xyz
      dof rx ry rz
   end
   begin
      id 20
      name RightHand_dum1
      direction 0.000000 0.000000 0.000000
      length 0.000000
      axis 0.0 0.0 90.0 xyz
   end
   begin
      id 21
      name RightHand_dum2
      direction -1.000000 0.000000 0.000000
      length 3.937000
      axis 0.0 0.0 90.0 xyz
   end
   begin
      id 22
      name RightHandThumb1
      direction 0.000000 0.000000 1.000000
      length 3.937000
      axis 0.0 0.0 90.0 xyz
      dof rx rz ry
   end
   begin
      id 23
      name LeftUpLeg
      direction 0.000000 -1.000000 0.000000
      length 15.713025
      axis 0.0 0.0 0.0 xyz
      dof rx ry rz
   end
   begin
      id 24
      name LeftLeg
      direction 0.000000 -1.000000 0.000000
      length 14.435119
      axis 0.0 0.0 0.0 xyz
      dof rx ry rz
   end
   begin
      id 25
      name LeftFoot
      direction 0.000000 -0.258819 0.965926
      length 4.938895
      axis 15.0 0.0 0.0 xyz
      dof rx ry rz
   end
   begin
      id 26
      name LeftToeBase
      direction 0.000000 0.000000 1.000000
      length 2.952750
      axis 0.0 0.0 0.0 xyz
      dof rx ry rz
   end
   begin
      id 27
      name RightUpLeg
      direction 0.000000 -1.000000 0.000000
      length 15.713025
      axis 0.0 0.0 0.0 xyz
      dof rx ry rz
   end
   begin
      id 28
      name RightLeg
      direction 0.000000 -1.000000 0.000000
      length 14.435119
      axis 0.0 0.0 0.0 xyz
      dof rx ry rz
   end
   begin
      id 29
      name RightFoot
      direction 0.000000 -0.258819 0.965926
      length 4.938895
      axis 15.0 0.0 0.0 xyz
      dof rx ry rz
   end
   begin
      id 30
      name RightToeBase
      direction 0.000000 0.000000 1.000000
      length 2.952750
      axis 0.0 0.0 0.0 xyz
      dof rx ry rz
   end
:hierarchy
   begin
      root Spine_dum LeftUpLeg_dum RightUpLeg_dum
      Spine_dum Spine
      LeftUpLeg_dum LeftUpLeg
      RightUpLeg_dum RightUpLeg
      Spine Spine_dum1 Spine_dum2 Spine_dum3
      Spine_dum1 Head
      Spine_dum2 LeftShoulder
      Spine_dum3 RightShoulder
      LeftShoulder LeftArm
      LeftArm LeftForeArm
      LeftForeArm LeftHand
      LeftHand LeftHand_dum1 LeftHand_dum2
      LeftHand_dum1 LeftHandThumb1
      RightShoulder RightArm
      RightArm RightForeArm
      RightForeArm RightHand
      RightHand RightHand_dum1 RightHand_dum2
      RightHand_dum1 RightHandThumb1
      LeftUpLeg LeftLeg
      LeftLeg LeftFoot
      LeftFoot LeftToeBase
      RightUpLeg RightLeg
      RightLeg RightFoot
      RightFoot RightToeBase
   end

# File created by Blade
# Date/Time:  Mon Sep 22 21:09:19 2014
# Frame Rate: 120.000 fps
#------------------------------------------------------
:FULLY-SPECIFIED
:DEGREES
1919
root -0.639030 32.475941 -11.473936 16.147232 24.688473 -16.463240
Spine -31.261159 -8.080213 20.098963
Head 3.696384 -1.671520 -3.641289
LeftShoulder 0.074295 39.951977 28.127162
LeftArm 85.984729 28.158090 -40.987065
LeftForeArm -33.627793 -0.000000 77.472860
LeftHand -27.461233 0.000000 0.884622
LeftHandThumb1 -26.253704 0.000000 33.147579
RightShoulder -3.317801 -46.542262 -20.309208
RightArm 69.351960 -16.612228 46.475389
RightForeArm 67.317893 -0.000000 69.012705
RightHand 3.315228 -0.000000 26.717876
RightHandThumb1 -24.326973 -0.000000 -32.862282
LeftUpLeg -34.496546 7.644171 4.849621
LeftLeg 25.906779 -0.000000 -0.000000
LeftFoot -13.452532 18.769399 8.162253
LeftToeBase -1.307849 -0.000000 0.000000
RightUpLeg -155.543497 2.557628 17.860733
RightLeg 78.579779 -0.000000 -0.000000
RightFoot 39.642511 -22.365812 7.337990
RightToeBase 43.415383 -0.000000 -0.000000
1920
root -0.636442 32.474173 -11.512823 16.140979 24.460581 -16.413066
Spine -31.133562 -7.984673 20.127903
Head 4.088045 -1.509975 -3.674314
LeftShoulder -0.073046 39.989854 28.009704
LeftArm 85.906630 28.182360 -40.952800
LeftForeArm -33.764590 -0.000000 77.516735
LeftHand -27.377856 -0.000000 0.998433
LeftHandThumb1 -26.253704 0.000000 33.147579
RightShoulder -3.100041 -46.422350 -20.468707
RightArm 69.316152 -16.682314 46.507085
RightForeArm 67.281326 -0.000000 69.011030
RightHand 3.297175 -0.000000 26.691640
RightHandThumb1 -24.326973 -0.000000 -32.862282
LeftUpLeg -34.530523 7.681034 4.809653
LeftLeg 26.016356 -0.000000 -0.000000
LeftFoot -13.467386 18.754667 7.995637
LeftToeBase -1.305794 -0.000000 0.000000
RightUpLeg -155.368089 2.828938 17.805644
RightLeg 78.658123 -0.000000 -0.000000
RightFoot 39.773841 -22.139165 7.347417
RightToeBase 43.419134 -0.000000 -0.000000
1921
root -0.638850 32.472981 -11.545481 16.022089 24.247653 -16.420656
Spine -30.926380 -7.868215 20.136270
Head 4.508178 -1.466789 -3.638357
LeftShoulder -0.186176 40.053103 27.941524
LeftArm 85.897752 28.151927 -40.868402
LeftForeArm -33.789858 0.000000 77.550652
LeftHand -27.369425 -0.000000 0.931538
LeftHandThumb1 -26.253704 0.000000 33.147579
RightShoulder -2.921887 -46.467276 -20.596057
RightArm 69.357903 -16.654685 46.594146
RightForeArm 67.179432 -0.000000 68.971833
RightHand 3.392513 -0.000000 26.676704
RightHandThumb1 -24.326973 -0.000000 -32.862282
LeftUpLeg -34.468047 7.840571 4.795451
LeftLeg 26.114350 -0.000000 -0.000000
LeftFoot -13.532522 18.647322 7.842814
LeftToeBase -1.333552 -0.000000 0.000000
RightUpLeg -155.114483 3.068867 17.772200
RightLeg 78.732483 -0.000000 -0.000000
RightFoot 39.864698 -22.086264 7.326285
RightToeBase 43.366118 -0.000000 -0.000000
1922
root -0.649778 32.471556 -11.574662 15.862066 24.098796 -16.387478
Spine -30.674909 -7.817406 20.035488
Head 4.892408 -1.445533 -3.442111
LeftShoulder -0.270566 40.118592 27.945435
LeftArm 85.965889 28.097412 -40.704676
LeftForeArm -33.927390 -0.000000 77.579099
LeftHand -27.276053 -0.000000 1.013360
LeftHandThumb1 -26.253704 0.000000 33.147579
RightShoulder -2.794887 -46.482059 -20.618908
RightArm 69.335299 -16.647148 46.731713
RightForeArm 67.007288 -0.000000 68.933340
RightHand 3.359313 -0.000000 26.780307
RightHandThumb1 -24.326973 -0.000000 -32.862282
LeftUpLeg -34.349237 8.037069 4.729079
LeftLeg 26.170409 -0.000000 -0.000000
LeftFoot -13.596276 18.477836 7.693632
LeftToeBase -1.305628 -0.000000 0.000000
RightUpLeg -154.858153 3.208110 17.693680
RightLeg 78.833469 -0.000000 -0.000000
RightFoot 39.941560 -21.977295 7.265774
RightToeBase 43.392869 -0.000000 -0.000000
